<svg width="26" height="26" viewBox="0 0 26 26" fill="none" xmlns="http://www.w3.org/2000/svg">
<path d="M2.84375 6.09375C2.84375 5.77052 2.97215 5.46052 3.20071 5.23196C3.42927 5.0034 3.73927 4.875 4.0625 4.875H21.9375C22.2607 4.875 22.5707 5.0034 22.7993 5.23196C23.0278 5.46052 23.1562 5.77052 23.1562 6.09375C23.1562 6.41698 23.0278 6.72698 22.7993 6.95554C22.5707 7.1841 22.2607 7.3125 21.9375 7.3125H4.0625C3.73927 7.3125 3.42927 7.1841 3.20071 6.95554C2.97215 6.72698 2.84375 6.41698 2.84375 6.09375V6.09375ZM6.09375 12.5938C6.09375 12.2705 6.22215 11.9605 6.45071 11.732C6.67927 11.5034 6.98927 11.375 7.3125 11.375H18.6875C19.0107 11.375 19.3207 11.5034 19.5493 11.732C19.7778 11.9605 19.9062 12.2705 19.9062 12.5938C19.9062 12.917 19.7778 13.227 19.5493 13.4555C19.3207 13.6841 19.0107 13.8125 18.6875 13.8125H7.3125C6.98927 13.8125 6.67927 13.6841 6.45071 13.4555C6.22215 13.227 6.09375 12.917 6.09375 12.5938V12.5938ZM9.34375 19.0938C9.34375 18.7705 9.47215 18.4605 9.70071 18.232C9.92927 18.0034 10.2393 17.875 10.5625 17.875H15.4375C15.7607 17.875 16.0707 18.0034 16.2993 18.232C16.5278 18.4605 16.6562 18.7705 16.6562 19.0938C16.6562 19.417 16.5278 19.727 16.2993 19.9555C16.0707 20.1841 15.7607 20.3125 15.4375 20.3125H10.5625C10.2393 20.3125 9.92927 20.1841 9.70071 19.9555C9.47215 19.727 9.34375 19.417 9.34375 19.0938V19.0938Z" fill="#555E63"/>
</svg>
