<svg width="30" height="30" viewBox="0 0 30 30" fill="none" xmlns="http://www.w3.org/2000/svg">
<path d="M14.5983 6.25684C13.5671 6.25684 12.5591 6.56262 11.7017 7.13551C10.8443 7.7084 10.176 8.52268 9.7814 9.47537C9.38678 10.4281 9.28353 11.4764 9.4847 12.4877C9.68588 13.4991 10.1824 14.4281 10.9116 15.1573C11.6407 15.8864 12.5697 16.383 13.5811 16.5841C14.5925 16.7853 15.6408 16.6821 16.5935 16.2875C17.5462 15.8928 18.3604 15.2246 18.9333 14.3672C19.5062 13.5098 19.812 12.5018 19.812 11.4706C19.812 10.0878 19.2627 8.76167 18.2849 7.78391C17.3072 6.80614 15.981 6.25684 14.5983 6.25684ZM14.5983 14.5988C13.9796 14.5988 13.3747 14.4154 12.8603 14.0716C12.3459 13.7279 11.9449 13.2393 11.7081 12.6677C11.4714 12.0961 11.4094 11.4671 11.5301 10.8603C11.6508 10.2535 11.9488 9.69607 12.3863 9.25857C12.8238 8.82108 13.3812 8.52315 13.988 8.40244C14.5948 8.28174 15.2238 8.34369 15.7954 8.58046C16.367 8.81723 16.8556 9.21818 17.1993 9.73262C17.543 10.2471 17.7265 10.8519 17.7265 11.4706C17.7257 12.3 17.3958 13.0952 16.8094 13.6817C16.2229 14.2681 15.4277 14.598 14.5983 14.5988Z" fill="#FD003A"/>
<path d="M14.5985 0C11.7112 0 8.88871 0.856186 6.48801 2.46029C4.0873 4.06439 2.21617 6.34436 1.11125 9.01188C0.00632528 11.6794 -0.282773 14.6147 0.280512 17.4465C0.843798 20.2783 2.23417 22.8795 4.2758 24.9212C6.31744 26.9628 8.91864 28.3532 11.7505 28.9165C14.5823 29.4797 17.5176 29.1906 20.1851 28.0857C22.8526 26.9808 25.1326 25.1097 26.7367 22.709C28.3408 20.3083 29.197 17.4858 29.197 14.5985C29.1926 10.7281 27.6531 7.01746 24.9163 4.28067C22.1795 1.54388 18.4689 0.00441575 14.5985 0V0ZM8.342 25.4191V23.9832C8.34282 23.1538 8.67267 22.3586 9.25915 21.7721C9.84563 21.1856 10.6408 20.8558 11.4702 20.855H17.7267C18.5561 20.8558 19.3513 21.1856 19.9378 21.7721C20.5243 22.3586 20.8542 23.1538 20.855 23.9832V25.4191C18.9563 26.5277 16.7971 27.112 14.5985 27.112C12.3998 27.112 10.2407 26.5277 8.342 25.4191V25.4191ZM22.9321 23.9061C22.9114 22.5383 22.3541 21.2335 21.3804 20.2727C20.4068 19.3119 19.0946 18.7721 17.7267 18.7695H11.4702C10.1023 18.7721 8.79021 19.3119 7.81654 20.2727C6.84288 21.2335 6.28562 22.5383 6.26484 23.9061C4.37388 22.2176 3.04038 19.9946 2.44091 17.5314C1.84144 15.0682 2.00427 12.481 2.90786 10.1124C3.81144 7.74384 5.41314 5.70557 7.50089 4.26752C9.58863 2.82946 12.0639 2.05946 14.599 2.05946C17.1341 2.05946 19.6094 2.82946 21.6971 4.26752C23.7849 5.70557 25.3866 7.74384 26.2902 10.1124C27.1937 12.481 27.3566 15.0682 26.7571 17.5314C26.1576 19.9946 24.8241 22.2176 22.9332 23.9061H22.9321Z" fill="#FD003A"/>
</svg>
