<svg width="28" height="28" viewBox="0 0 28 28" fill="none" xmlns="http://www.w3.org/2000/svg">
<path d="M8.73148 7.97222C8.73148 8.37496 8.5715 8.7612 8.28672 9.04598C8.00194 9.33075 7.6157 9.49074 7.21296 9.49074C6.81023 9.49074 6.42399 9.33075 6.13921 9.04598C5.85443 8.7612 5.69444 8.37496 5.69444 7.97222C5.69444 7.56949 5.85443 7.18325 6.13921 6.89847C6.42399 6.61369 6.81023 6.4537 7.21296 6.4537C7.6157 6.4537 8.00194 6.61369 8.28672 6.89847C8.5715 7.18325 8.73148 7.56949 8.73148 7.97222ZM11.3889 7.97222C11.3889 7.67017 11.5089 7.38049 11.7225 7.16691C11.936 6.95332 12.2257 6.83333 12.5278 6.83333H20.8796C21.1817 6.83333 21.4714 6.95332 21.6849 7.16691C21.8985 7.38049 22.0185 7.67017 22.0185 7.97222C22.0185 8.27427 21.8985 8.56395 21.6849 8.77754C21.4714 8.99112 21.1817 9.11111 20.8796 9.11111H12.5278C12.2257 9.11111 11.936 8.99112 11.7225 8.77754C11.5089 8.56395 11.3889 8.27427 11.3889 7.97222ZM11.3889 13.6667C11.3889 13.3646 11.5089 13.0749 11.7225 12.8614C11.936 12.6478 12.2257 12.5278 12.5278 12.5278H20.8796C21.1817 12.5278 21.4714 12.6478 21.6849 12.8614C21.8985 13.0749 22.0185 13.3646 22.0185 13.6667C22.0185 13.9687 21.8985 14.2584 21.6849 14.472C21.4714 14.6856 21.1817 14.8056 20.8796 14.8056H12.5278C12.2257 14.8056 11.936 14.6856 11.7225 14.472C11.5089 14.2584 11.3889 13.9687 11.3889 13.6667ZM12.5278 18.2222C12.2257 18.2222 11.936 18.3422 11.7225 18.5558C11.5089 18.7694 11.3889 19.0591 11.3889 19.3611C11.3889 19.6632 11.5089 19.9528 11.7225 20.1664C11.936 20.38 12.2257 20.5 12.5278 20.5H20.8796C21.1817 20.5 21.4714 20.38 21.6849 20.1664C21.8985 19.9528 22.0185 19.6632 22.0185 19.3611C22.0185 19.0591 21.8985 18.7694 21.6849 18.5558C21.4714 18.3422 21.1817 18.2222 20.8796 18.2222H12.5278ZM7.21296 15.1852C7.6157 15.1852 8.00194 15.0252 8.28672 14.7404C8.5715 14.4556 8.73148 14.0694 8.73148 13.6667C8.73148 13.2639 8.5715 12.8777 8.28672 12.5929C8.00194 12.3081 7.6157 12.1481 7.21296 12.1481C6.81023 12.1481 6.42399 12.3081 6.13921 12.5929C5.85443 12.8777 5.69444 13.2639 5.69444 13.6667C5.69444 14.0694 5.85443 14.4556 6.13921 14.7404C6.42399 15.0252 6.81023 15.1852 7.21296 15.1852ZM8.73148 19.3611C8.73148 19.7638 8.5715 20.1501 8.28672 20.4349C8.00194 20.7196 7.6157 20.8796 7.21296 20.8796C6.81023 20.8796 6.42399 20.7196 6.13921 20.4349C5.85443 20.1501 5.69444 19.7638 5.69444 19.3611C5.69444 18.9584 5.85443 18.5721 6.13921 18.2874C6.42399 18.0026 6.81023 17.8426 7.21296 17.8426C7.6157 17.8426 8.00194 18.0026 8.28672 18.2874C8.5715 18.5721 8.73148 18.9584 8.73148 19.3611V19.3611ZM3.41667 0C2.51051 0 1.64147 0.359969 1.00072 1.00072C0.359969 1.64147 0 2.51051 0 3.41667V23.9167C0 24.8228 0.359969 25.6919 1.00072 26.3326C1.64147 26.9734 2.51051 27.3333 3.41667 27.3333H23.9167C24.8228 27.3333 25.6919 26.9734 26.3326 26.3326C26.9734 25.6919 27.3333 24.8228 27.3333 23.9167V3.41667C27.3333 2.51051 26.9734 1.64147 26.3326 1.00072C25.6919 0.359969 24.8228 0 23.9167 0H3.41667ZM2.27778 3.41667C2.27778 3.11461 2.39777 2.82493 2.61135 2.61135C2.82493 2.39777 3.11461 2.27778 3.41667 2.27778H23.9167C24.2187 2.27778 24.5084 2.39777 24.722 2.61135C24.9356 2.82493 25.0556 3.11461 25.0556 3.41667V23.9167C25.0556 24.2187 24.9356 24.5084 24.722 24.722C24.5084 24.9356 24.2187 25.0556 23.9167 25.0556H3.41667C3.11461 25.0556 2.82493 24.9356 2.61135 24.722C2.39777 24.5084 2.27778 24.2187 2.27778 23.9167V3.41667Z" fill="#FD003A"/>
</svg>
