<svg width="34" height="34" viewBox="0 0 34 34" fill="none" xmlns="http://www.w3.org/2000/svg">
<path d="M9.5625 29.75H24.4375C25.1458 29.75 25.5 30.1042 25.5 30.8125C25.5 31.5208 25.1458 31.875 24.4375 31.875H9.5625C8.85417 31.875 8.5 31.5208 8.5 30.8125C8.5 30.1042 8.85417 29.75 9.5625 29.75Z" fill="#FD003A"/>
<path d="M26.5625 13.8125C26.5625 11.2764 25.555 8.84411 23.7617 7.05079C21.9684 5.25747 19.5361 4.25 17 4.25C14.4639 4.25 12.0316 5.25747 10.2383 7.05079C8.44497 8.84411 7.4375 11.2764 7.4375 13.8125C7.4375 17.7352 10.5761 22.848 17 28.9722C23.4239 22.848 26.5625 17.7352 26.5625 13.8125ZM17 31.875C9.20763 24.7924 5.3125 18.7701 5.3125 13.8125C5.3125 10.7128 6.54386 7.74002 8.73569 5.54819C10.9275 3.35636 13.9003 2.125 17 2.125C20.0997 2.125 23.0725 3.35636 25.2643 5.54819C27.4561 7.74002 28.6875 10.7128 28.6875 13.8125C28.6875 18.7701 24.7924 24.7924 17 31.875Z" fill="#FD003A"/>
<path d="M18.0625 12.75H21.25C21.5318 12.75 21.802 12.8619 22.0013 13.0612C22.2006 13.2605 22.3125 13.5307 22.3125 13.8125C22.3125 14.0943 22.2006 14.3645 22.0013 14.5638C21.802 14.7631 21.5318 14.875 21.25 14.875H18.0625V18.0625C18.0625 18.3443 17.9506 18.6145 17.7513 18.8138C17.552 19.0131 17.2818 19.125 17 19.125C16.7182 19.125 16.448 19.0131 16.2487 18.8138C16.0494 18.6145 15.9375 18.3443 15.9375 18.0625V14.875H12.75C12.4682 14.875 12.198 14.7631 11.9987 14.5638C11.7994 14.3645 11.6875 14.0943 11.6875 13.8125C11.6875 13.5307 11.7994 13.2605 11.9987 13.0612C12.198 12.8619 12.4682 12.75 12.75 12.75H15.9375V9.5625C15.9375 9.28071 16.0494 9.01046 16.2487 8.8112C16.448 8.61194 16.7182 8.5 17 8.5C17.2818 8.5 17.552 8.61194 17.7513 8.8112C17.9506 9.01046 18.0625 9.28071 18.0625 9.5625V12.75Z" fill="#FD003A"/>
</svg>
