<svg width="184" height="184" viewBox="0 0 184 184" fill="none" xmlns="http://www.w3.org/2000/svg">
<path d="M155.25 44.5625H130.812L124.991 28.2469C124.588 27.1304 123.851 26.1654 122.88 25.4836C121.909 24.8018 120.751 24.4365 119.564 24.4375H64.4359C62.0102 24.4375 59.8359 25.9648 59.0273 28.2469L53.1875 44.5625H28.75C20.8078 44.5625 14.375 50.9953 14.375 58.9375V140.875C14.375 148.817 20.8078 155.25 28.75 155.25H155.25C163.192 155.25 169.625 148.817 169.625 140.875V58.9375C169.625 50.9953 163.192 44.5625 155.25 44.5625ZM156.688 140.875C156.688 141.666 156.041 142.312 155.25 142.312H28.75C27.9594 142.312 27.3125 141.666 27.3125 140.875V58.9375C27.3125 58.1469 27.9594 57.5 28.75 57.5H62.2977L65.3703 48.9109L69.4852 37.375H114.497L118.612 48.9109L121.684 57.5H155.25C156.041 57.5 156.688 58.1469 156.688 58.9375V140.875ZM92 69C76.1156 69 63.25 81.8656 63.25 97.75C63.25 113.634 76.1156 126.5 92 126.5C107.884 126.5 120.75 113.634 120.75 97.75C120.75 81.8656 107.884 69 92 69ZM92 115C82.4766 115 74.75 107.273 74.75 97.75C74.75 88.2266 82.4766 80.5 92 80.5C101.523 80.5 109.25 88.2266 109.25 97.75C109.25 107.273 101.523 115 92 115Z" fill="#B4B4B4"/>
</svg>
