<svg width="19" height="19" viewBox="0 0 19 19" fill="none" xmlns="http://www.w3.org/2000/svg">
<path d="M13.4745 3.40883L15.5926 5.52585L13.4745 3.40883ZM14.8366 1.54381L9.1095 7.27087C8.81358 7.56637 8.61177 7.94286 8.52949 8.35288L8.00049 11.0009L10.6485 10.4709C11.0585 10.3889 11.4345 10.1879 11.7305 9.89189L17.4576 4.16484C17.6297 3.99274 17.7662 3.78843 17.8593 3.56357C17.9525 3.33871 18.0004 3.09771 18.0004 2.85432C18.0004 2.61094 17.9525 2.36994 17.8593 2.14508C17.7662 1.92022 17.6297 1.71591 17.4576 1.54381C17.2855 1.37171 17.0812 1.23519 16.8563 1.14205C16.6315 1.04891 16.3905 1.00098 16.1471 1.00098C15.9037 1.00098 15.6627 1.04891 15.4378 1.14205C15.213 1.23519 15.0087 1.37171 14.8366 1.54381V1.54381Z" stroke="#555E63" stroke-width="2.00002" stroke-linecap="round" stroke-linejoin="round"/>
<path d="M16.0009 13.0011V16.0011C16.0009 16.5315 15.7902 17.0403 15.4151 17.4153C15.04 17.7904 14.5313 18.0011 14.0009 18.0011H3.00075C2.47031 18.0011 1.9616 17.7904 1.58652 17.4153C1.21145 17.0403 1.00073 16.5315 1.00073 16.0011V5.001C1.00073 4.47056 1.21145 3.96185 1.58652 3.58677C1.9616 3.21169 2.47031 3.00098 3.00075 3.00098H6.00078" stroke="#555E63" stroke-width="2.00002" stroke-linecap="round" stroke-linejoin="round"/>
</svg>
