<svg width="24" height="24" viewBox="0 0 24 24" fill="none" xmlns="http://www.w3.org/2000/svg">
<path d="M12.0129 2.25C12.7469 2.258 13.4779 2.343 14.1939 2.503C14.3464 2.53705 14.4845 2.6179 14.5889 2.73426C14.6932 2.85062 14.7586 2.99667 14.7759 3.152L14.9459 4.679C14.9698 4.89441 15.0441 5.10119 15.1625 5.28268C15.281 5.46416 15.4405 5.61528 15.6281 5.72386C15.8157 5.83244 16.0261 5.89545 16.2425 5.9078C16.4589 5.92016 16.6752 5.88152 16.8739 5.795L18.2739 5.18C18.4161 5.11735 18.5743 5.10044 18.7266 5.13161C18.8789 5.16278 19.0177 5.2405 19.1239 5.354C20.1358 6.43511 20.8894 7.73162 21.3279 9.146C21.3739 9.29464 21.3725 9.45389 21.3239 9.60171C21.2754 9.74953 21.1821 9.87858 21.0569 9.971L19.8149 10.887C19.6401 11.0152 19.498 11.1829 19.4001 11.3763C19.3021 11.5697 19.2512 11.7835 19.2513 12.0003C19.2513 12.217 19.3025 12.4308 19.4006 12.6241C19.4987 12.8174 19.641 12.9849 19.8159 13.113L21.0589 14.028C21.1843 14.1205 21.2777 14.2497 21.3263 14.3977C21.3748 14.5458 21.3761 14.7052 21.3299 14.854C20.8915 16.2682 20.1383 17.5647 19.1269 18.646C19.0209 18.7595 18.8823 18.8372 18.7302 18.8686C18.5782 18.8999 18.4201 18.8833 18.2779 18.821L16.8719 18.204C16.6734 18.1168 16.4572 18.0776 16.2408 18.0895C16.0244 18.1015 15.8138 18.1642 15.6261 18.2727C15.4384 18.3812 15.279 18.5324 15.1606 18.714C15.0423 18.8956 14.9684 19.1025 14.9449 19.318L14.7759 20.844C14.7588 20.9976 14.6947 21.1423 14.5924 21.2581C14.49 21.3739 14.3543 21.4553 14.2039 21.491C12.7558 21.8355 11.247 21.8355 9.79889 21.491C9.64849 21.4553 9.51281 21.3739 9.41042 21.2581C9.30803 21.1423 9.24393 20.9976 9.22689 20.844L9.05689 19.32C9.03229 19.1054 8.95775 18.8996 8.83924 18.7191C8.72074 18.5385 8.56157 18.3883 8.3745 18.2803C8.18743 18.1724 7.97768 18.1098 7.76205 18.0976C7.54643 18.0854 7.33095 18.1239 7.13289 18.21L5.72589 18.826C5.58367 18.8883 5.42562 18.9049 5.27355 18.8736C5.12148 18.8422 4.98288 18.7645 4.87689 18.651C3.86496 17.5685 3.11173 16.2706 2.67389 14.855C2.62768 14.7062 2.62895 14.5468 2.67751 14.3987C2.72607 14.2507 2.81953 14.1215 2.94489 14.029L4.18889 13.113C4.36374 12.9848 4.50593 12.8173 4.60394 12.6239C4.70195 12.4305 4.75303 12.2168 4.75303 12C4.75303 11.7832 4.70195 11.5695 4.60394 11.3761C4.50593 11.1827 4.36374 11.0152 4.18889 10.887L2.94589 9.973C2.82035 9.88065 2.7267 9.75148 2.67795 9.60345C2.62921 9.45542 2.62779 9.29588 2.67389 9.147C3.11271 7.73253 3.86662 6.43601 4.87889 5.355C4.985 5.2417 5.12365 5.16412 5.27571 5.13296C5.42778 5.10179 5.58577 5.11858 5.72789 5.181L7.12789 5.796C7.32691 5.88227 7.54339 5.92066 7.75994 5.90809C7.97649 5.89551 8.18707 5.83232 8.37476 5.7236C8.56246 5.61487 8.72204 5.46363 8.84068 5.28204C8.95932 5.10045 9.03371 4.89356 9.05789 4.678L9.22789 3.152C9.24505 2.99635 9.3105 2.84998 9.41505 2.73341C9.5196 2.61684 9.65802 2.53592 9.81089 2.502C10.5289 2.343 11.2609 2.259 12.0129 2.25ZM12.0129 3.75C11.5589 3.75528 11.106 3.79438 10.6579 3.867L10.5489 4.844C10.499 5.29356 10.3441 5.7251 10.0967 6.10379C9.84933 6.48248 9.51641 6.79772 9.1248 7.02409C8.73319 7.25045 8.29385 7.3816 7.84224 7.40694C7.39062 7.43229 6.93937 7.35112 6.52489 7.17L5.62689 6.776C5.05488 7.47012 4.5996 8.25268 4.27889 9.093L5.07689 9.68C5.44111 9.94767 5.73723 10.2973 5.94133 10.7006C6.14543 11.1039 6.25178 11.5495 6.25178 12.0015C6.25178 12.4535 6.14543 12.8991 5.94133 13.3024C5.73723 13.7057 5.44111 14.0553 5.07689 14.323L4.27889 14.911C4.59889 15.753 5.05389 16.537 5.62589 17.233L6.53189 16.836C6.94538 16.6555 7.39548 16.5745 7.84596 16.5997C8.29644 16.6249 8.73472 16.7555 9.12551 16.981C9.51629 17.2065 9.84868 17.5206 10.0959 17.898C10.3431 18.2755 10.4983 18.7057 10.5489 19.154L10.6569 20.138C11.5469 20.288 12.4559 20.288 13.3459 20.138L13.4539 19.154C13.5034 18.7047 13.6579 18.2734 13.905 17.8949C14.152 17.5165 14.4847 17.2014 14.8761 16.9754C15.2675 16.7493 15.7066 16.6185 16.1579 16.5936C16.6092 16.5687 17.06 16.6504 17.4739 16.832L18.3779 17.228C18.9496 16.5334 19.4045 15.7506 19.7249 14.91L18.9269 14.322C18.5625 14.0545 18.2662 13.7049 18.062 13.3016C17.8577 12.8983 17.7513 12.4526 17.7513 12.0005C17.7513 11.5484 17.8577 11.1027 18.062 10.6994C18.2662 10.2961 18.5625 9.94654 18.9269 9.679L19.7229 9.092C19.4022 8.25168 18.9469 7.46912 18.3749 6.775L17.4789 7.168C17.0646 7.34935 16.6136 7.43075 16.162 7.40562C15.7105 7.38049 15.2713 7.24953 14.8797 7.02333C14.4881 6.79713 14.1552 6.48203 13.9079 6.10345C13.6606 5.72488 13.5057 5.29345 13.4559 4.844L13.3459 3.868C12.9051 3.79594 12.4595 3.75683 12.0129 3.751V3.75ZM11.9999 8.25C12.9945 8.25 13.9483 8.64509 14.6515 9.34835C15.3548 10.0516 15.7499 11.0054 15.7499 12C15.7499 12.9946 15.3548 13.9484 14.6515 14.6517C13.9483 15.3549 12.9945 15.75 11.9999 15.75C11.0053 15.75 10.0515 15.3549 9.34824 14.6517C8.64498 13.9484 8.24989 12.9946 8.24989 12C8.24989 11.0054 8.64498 10.0516 9.34824 9.34835C10.0515 8.64509 11.0053 8.25 11.9999 8.25V8.25ZM11.9999 9.75C11.4032 9.75 10.8309 9.98705 10.4089 10.409C9.98694 10.831 9.74989 11.4033 9.74989 12C9.74989 12.5967 9.98694 13.169 10.4089 13.591C10.8309 14.0129 11.4032 14.25 11.9999 14.25C12.5966 14.25 13.1689 14.0129 13.5909 13.591C14.0128 13.169 14.2499 12.5967 14.2499 12C14.2499 11.4033 14.0128 10.831 13.5909 10.409C13.1689 9.98705 12.5966 9.75 11.9999 9.75Z" fill="black"/>
</svg>
